<svg width="22" height="26" viewBox="0 0 22 26" fill="none" xmlns="http://www.w3.org/2000/svg">
    <path d="M5.66838 25.5133C5.15576 25.1723 4.70144 24.7509 4.32288 24.2653C3.90646 23.7641 3.52064 23.2383 3.1675 22.6907C2.33882 21.4767 1.68894 20.1498 1.23782 18.7509C0.695879 17.1259 0.433441 15.5683 0.433441 14.0449C0.433441 12.3435 0.801504 10.8582 1.52138 9.61024C2.05501 8.63478 2.83959 7.81963 3.79394 7.24911C4.71882 6.67465 5.78151 6.36028 6.87007 6.33911C7.25113 6.33911 7.66144 6.39436 8.09694 6.49999C8.40975 6.58855 8.79082 6.7283 9.25638 6.90218C9.84869 7.13049 10.1745 7.27024 10.285 7.30436C10.6319 7.43111 10.9236 7.48636 11.1528 7.48636C11.3266 7.48636 11.572 7.43111 11.8507 7.34661C12.0075 7.29136 12.3033 7.19386 12.7266 7.01268C13.1458 6.85993 13.4757 6.72911 13.7381 6.63161C14.1403 6.51299 14.5295 6.4033 14.8764 6.34805C15.2877 6.28321 15.7051 6.26603 16.1204 6.29686C16.8399 6.34389 17.5487 6.49638 18.2239 6.74943C19.3281 7.19386 20.2211 7.88774 20.8857 8.87411C20.6048 9.04725 20.3411 9.24696 20.0984 9.47049C19.5699 9.93896 19.1198 10.4889 18.7651 11.0996C18.3014 11.934 18.061 12.8741 18.0671 13.8287C18.0842 15.0012 18.3848 16.0339 18.9771 16.9268C19.4126 17.5886 19.9785 18.1545 20.6403 18.59C20.9791 18.8183 21.2708 18.9751 21.5503 19.0807C21.4195 19.487 21.2797 19.8802 21.1148 20.2702C20.7407 21.1448 20.2874 21.9833 19.7604 22.7752C19.2908 23.4569 18.9227 23.9647 18.6432 24.3027C18.2077 24.8186 17.7884 25.2127 17.3651 25.4873C16.8996 25.7961 16.3495 25.961 15.7905 25.961C15.4119 25.9755 15.0334 25.9297 14.6693 25.8253C14.3564 25.7197 14.0469 25.6051 13.7422 25.4743C13.4254 25.3288 13.0988 25.2058 12.7648 25.1062C11.939 24.8941 11.0732 24.8928 10.2468 25.1022C9.908 25.1997 9.58219 25.3134 9.26044 25.4532C8.80788 25.6433 8.50725 25.7709 8.33338 25.8253C7.98644 25.9269 7.6265 25.9902 7.2625 26.0114C6.69944 26.0114 6.17456 25.8505 5.65457 25.5247L5.66838 25.5133ZM13.0946 5.51361C12.3585 5.88168 11.6557 6.03849 10.9578 5.9873C10.8481 5.28449 10.9578 4.56543 11.2494 3.77811C11.4978 3.1111 11.8647 2.49451 12.3325 1.95811C12.8265 1.39344 13.426 0.930607 14.0973 0.595551C14.8123 0.227488 15.4939 0.028426 16.1456 -0.000823975C16.2301 0.735301 16.1456 1.45924 15.875 2.24168C15.6246 2.93334 15.2584 3.57737 14.7919 4.14618C14.3159 4.71162 13.7316 5.17625 13.0735 5.5128L13.0946 5.51361Z" fill="black"/>
</svg>
